{"title":"What History Forgot S01E03 To the Ends of the World DSR EN-SUB x","uid":12090446,"size":315966266,"categoryP":"video","categoryS":"tv_shows","magnet":"?xt=urn:btih:e868f2a8594d1fccfa58189f86ffbbc0385d4edf&amp;dn=What+History+Forgot+S01E03+To+the+Ends+of+the+World+DSR+EN-SUB+x&amp;tr=udp%3A%2F%2Ftracker.openbittorrent.com%3A80&amp;tr=udp%3A%2F%2Fopen.demonii.com%3A1337&amp;tr=udp%3A%2F%2Ftracker.coppersurfer.tk%3A6969&amp;tr=udp%3A%2F%2Fexodus.desync.com%3A6969","seeders":0,"leechers":0,"uploader":"Mulva1989","files":2,"time":1436029890,"description":"What History Forgot S01E03 To the Ends of the World DSR EN-SUB x264-W4F\n\nWe've heard the story of Japan's attack on Pearl Harbor during WWII, but did you know there was a second surprise designed to devastate America's mainland? We've seen the famous footage of the Hindenburg airship disaster... but was it the worst airship crash ever? Not by a long shot. And what about the first astronaut to be in space for more than 24 hours- Gordon Cooper....How did he manage to pilot his Faith 7 spacecraft after a complete system failure? Plus, can you believe when the United States astronauts first walked on the Moon- the Soviets were there, too? Moniaci uncovers the stories behind some of the biggest disasters, threats and conquests that took place in America's skies.\n\nScreens @ &lt;a href=&quot;\nhttps://yuq.me/users/50/321/289awnGIv6.jpg&quot; rel=&quot;nofollow&quot; target=&quot;_NEW&quot;&gt;\nhttps://yuq.me/users/50/321/289awnGIv6.jpg&lt;/a&gt; &lt;a href=&quot;\nhttps://yuq.me/users/50/321/FvY1l8zaet.jpg&quot; rel=&quot;nofollow&quot; target=&quot;_NEW&quot;&gt;\nhttps://yuq.me/users/50/321/FvY1l8zaet.jpg&lt;/a&gt;\n\nFormat : MPEG-4\nFormat profile : Base Media\nCodec ID : isom\nFile size : 301 MiB\nDuration : 44mn 33s\nOverall bit rate mode : Variable\nOverall bit rate : 945 Kbps\nEncoded date : UTC 2015-06-17 20:04:03\nTagged date : UTC 2015-06-17 20:04:03\n\nVideo\nID : 1\nFormat : AVC\nFormat/Info : Advanced Video Codec\nFormat profile : &lt;a class=&quot;__cf_email__&quot; href=&quot;/cdn-cgi/l/email-protection&quot; data-cfemail=&quot;db93b2bcb39b97e8f5ea&quot;&gt;[email&amp;#160;protected]&lt;/a&gt;&lt;script data-cfhash='f9e31' type=&quot;text/javascript&quot;&gt;\n/* &lt;![CDATA[ */!function(){try{var t=&quot;currentScript&quot;in document?document.currentScript:function(){for(var t=document.getElementsByTagName(&quot;script&quot;),e=t.length;e--;)if(t[e].getAttribute(&quot;data-cfhash&quot;))return t[e]}();if(t&amp;&amp;t.previousSibling){var e,r,n,i,c=t.previousSibling,a=c.getAttribute(&quot;data-cfemail&quot;);if(a){for(e=&quot;&quot;,r=parseInt(a.substr(0,2),16),n=2;a.length-n;n+=2)i=parseInt(a.substr(n,2),16)^r,e+=String.fromCharCode(i);e=document.createTextNode(e),c.parentNode.replaceChild(e,c)}t.parentNode.removeChild(t);}}catch(u){}}()/* ]]&gt; */&lt;/script&gt;\nFormat settings, CABAC : Yes\nFormat settings, ReFrames : 5 frames\nCodec ID : avc1\nCodec ID/Info : Advanced Video Coding\nDuration : 44mn 32s\nBit rate : 806 Kbps\nMaximum bit rate : 5 226 Kbps\nWidth : 640 pixels\nHeight : 358 pixels\nDisplay aspect ratio : 16:9\nFrame rate mode : Constant\nFrame rate : 29.970 fps\nColor space : YUV\nChroma subsampling : 4:2:0\nBit depth : 8 bits\nScan type : Progressive\nBits/(Pixel*Frame) : 0.117\nStream size : 257 MiB (85%)\nWriting library : x264 core 146 r2538 121396c\nEncoding settings : cabac=1 / ref=5 / deblock=1:-1:-1 / analyse=0x3:0x113 / me=umh / subme=8 / psy=1 / psy_rd=1.00:0.15 / mixed_ref=1 / me_range=16 / chroma_me=1 / trellis=1 / 8x8dct=1 / cqm=0 / deadzone=21,11 / fast_pskip=1 / chroma_qp_offset=-3 / threads=12 / lookahead_threads=2 / sliced_threads=0 / nr=0 / decimate=1 / interlaced=0 / bluray_compat=0 / constrained_intra=0 / bframes=3 / b_pyramid=2 / b_adapt=2 / b_bias=0 / direct=3 / weightb=1 / open_gop=0 / weightp=2 / keyint=250 / keyint_min=25 / scenecut=40 / intra_refresh=0 / rc_lookahead=50 / rc=crf / mbtree=1 / crf=21.0 / qcomp=0.60 / qpmin=0 / qpmax=69 / qpstep=4 / ip_ratio=1.40 / aq=1:1.00\nEncoded date : UTC 2015-06-17 20:04:03\nTagged date : UTC 2015-06-17 20:04:06\n\nAudio\nID : 2\nFormat : AAC\nFormat/Info : Advanced Audio Codec\nFormat profile : LC\nCodec ID : 40\nDuration : 44mn 32s\nBit rate mode : Variable\nBit rate : 132 Kbps\nMaximum bit rate : 165 Kbps\nChannel(s) : 2 channels\nChannel positions : Front: L R\nSampling rate : 48.0 KHz\nCompression mode : Lossy\nStream size : 42.9 MiB (14%)\nLanguage : English\nEncoded date : UTC 2015-06-17 20:04:05\nTagged date : UTC 2015-06-17 20:04:06\n\nText\nID : 3\nFormat : Timed Text\nCodec ID : tx3g\nDuration : 44mn 33s\nBit rate mode : Variable\nBit rate : 161 bps\nStream size : 52.6 KiB (0%)\nLanguage : English\nEncoded date : UTC 2015-06-17 20:04:06\nTagged date : UTC 2015-06-17 20:04:06","torrent":{"xt":"urn:btih:e868f2a8594d1fccfa58189f86ffbbc0385d4edf","amp;dn":"What+History+Forgot+S01E03+To+the+Ends+of+the+World+DSR+EN-SUB+x","amp;tr":["udp%3A%2F%2Ftracker.openbittorrent.com%3A80","udp%3A%2F%2Fopen.demonii.com%3A1337","udp%3A%2F%2Ftracker.coppersurfer.tk%3A6969","udp%3A%2F%2Fexodus.desync.com%3A6969"],"infoHash":"e868f2a8594d1fccfa58189f86ffbbc0385d4edf","infoHashBuffer":{"type":"Buffer","data":[232,104,242,168,89,77,31,204,250,88,24,159,134,255,187,192,56,93,78,223]},"announce":[],"urlList":[]}}